<svg id="Layer_3" height="512" viewBox="0 0 64 64" width="512" xmlns="http://www.w3.org/2000/svg" data-name="Layer 3"><path d="m49.941 34a6.971 6.971 0 0 1 6.685 9.135 28.065 28.065 0 1 1 -30.467-36.865 7.662 7.662 0 0 1 6.424 2.23 7.769 7.769 0 0 1 0 11l-.876.874a7.968 7.968 0 0 0 -1 10.07 8 8 0 0 0 6.654 3.556z" fill="#d8d8d8"/><circle cx="37" cy="52" fill="#e1656e" r="5"/><path d="m32 52a4.954 4.954 0 0 0 1.147 3.151 4.981 4.981 0 0 0 5.807-7.751 5 5 0 0 0 -6.954 4.6z" fill="#f29b99"/><path d="m42 40 19.424-31.964a3.975 3.975 0 0 0 .522-2.713 3.98 3.98 0 0 0 -5.184-3.117h-.014a3.981 3.981 0 0 0 -2.343 2.078l-15.405 32.696" fill="#976947"/><path d="m46.914 31.914-3.757-3.757-4.157 8.823v.02l3 3z" fill="#674025"/><circle cx="23" cy="51" fill="#b52f28" r="5"/><path d="m42 40a15.843 15.843 0 0 1 -15.369 12h-1.631l1.977-1.977a6.908 6.908 0 0 0 2.023-4.884 6.908 6.908 0 0 1 4.922-6.616l5.078-1.523z" fill="#c18e59"/><path d="m41.246 39.246-2.246-2.246-5.078 1.523a6.908 6.908 0 0 0 -4.922 6.616 6.9 6.9 0 0 1 -1.147 3.809 15.835 15.835 0 0 0 13.393-9.702z" fill="#cc996a"/><circle cx="23" cy="17" fill="#d5883e" r="5"/><path d="m18 17a4.954 4.954 0 0 0 1.147 3.151 4.981 4.981 0 0 0 5.807-7.751 5 5 0 0 0 -6.954 4.6z" fill="#f0ae42"/><circle cx="13" cy="27" fill="#4d8c28" r="5"/><circle cx="13" cy="41" fill="#3d54bd" r="5"/><path d="m8 27a4.954 4.954 0 0 0 1.147 3.151 4.981 4.981 0 0 0 5.807-7.751 5 5 0 0 0 -6.954 4.6z" fill="#6bc13b"/><path d="m8 41a4.954 4.954 0 0 0 1.147 3.151 4.981 4.981 0 0 0 5.807-7.751 5 5 0 0 0 -6.954 4.6z" fill="#546ded"/><path d="m18 51a4.954 4.954 0 0 0 1.147 3.151 4.981 4.981 0 0 0 5.807-7.751 5 5 0 0 0 -6.954 4.6z" fill="#d23f34"/></svg>